Coordinates
version=1
nRows=14
nColumns=24
inDegrees=yes

Units are S.I. units (second, meters, Newtons, ...)
Angles are in degrees.

endheader
time	pelvis_tilt	pelvis_list	pelvis_rotation	pelvis_tx	pelvis_ty	pelvis_tz	hip_flexion_r	hip_adduction_r	hip_rotation_r	knee_angle_r	ankle_angle_r	subtalar_angle_r	mtp_angle_r	hip_flexion_l	hip_adduction_l	hip_rotation_l	knee_angle_l	ankle_angle_l	subtalar_angle_l	mtp_angle_l	lumbar_extension	lumbar_bending	lumbar_rotation
      2.29000000	     12.55190406	      5.96372728	     -3.48488046	      0.46347837	      0.94838590	      0.24665019	      7.79369479	     -8.21263281	     -0.59589396	    -64.16417267	     17.54930194	      5.59480148	     51.73522793	     -5.98382602	      9.07096557	    -12.13707858	    -14.54909329	     20.55191257	      9.63325724	     15.48484349	    -27.53671829	     -7.48182333	      4.38703995
      2.29500000	     12.75175594	      5.94666712	     -3.45427179	      0.47002430	      0.94899163	      0.24628240	      8.19905215	     -8.18388579	     -0.74149931	    -63.55061893	     17.97514498	      5.78929811	     51.03399113	     -6.97121510	      9.12394981	    -12.24439296	    -13.93382603	     20.79125255	     10.08872201	     15.09187228	    -27.74369451	     -7.37920998	      4.27373747
      2.30000000	     12.77086614	      6.06423728	     -3.27917349	      0.47651290	      0.94929333	      0.24573013	      8.75395491	     -8.34611937	     -1.04167573	    -62.85897439	     18.29583629	      5.90285322	     50.86728559	     -7.75444859	      9.29557905	    -12.04567999	    -13.33450058	     20.91186849	     10.45837465	     14.98593814	    -27.76557081	     -7.35127020	      3.85700365
      2.30500000	     13.01339904	      6.07737655	     -3.06429498	      0.48308965	      0.94996609	      0.24509894	      8.95590318	     -8.41251497	     -1.41356823	    -61.97703888	     18.66368481	      6.08287647	     50.61123260	     -8.84544072	      9.37602128	    -11.71912772	    -12.63047142	     20.94198064	     10.68937186	     14.84427535	    -28.03007948	     -7.18877961	      3.54396581
      2.31000000	     13.13980255	      6.06653908	     -3.05057044	      0.48957159	      0.95028746	      0.24494016	      9.37609364	     -8.38055945	     -1.54301822	    -61.14434963	     18.91168135	      6.09892907	     50.35079362	     -9.69851425	      9.41858355	    -11.78339922	    -12.07018466	     21.03716807	     11.02385083	     14.75451895	    -28.16091415	     -7.11425945	      3.40072924
      2.31500000	     13.22939657	      6.04071300	     -3.05362328	      0.49574386	      0.95043480	      0.24472821	      9.82808815	     -8.31321121	     -1.61256112	    -60.23512096	     19.22469896	      6.19018421	     50.14831906	    -10.52130582	      9.48327735	    -11.65304033	    -11.48780735	     21.16242734	     11.02666138	     14.59776432	    -28.27491719	     -7.02632764	      3.35468794
      2.32000000	     13.30204419	      6.04242536	     -2.96177330	      0.50204939	      0.95045310	      0.24432644	     10.27223832	     -8.31944276	     -1.89793706	    -59.30081666	     19.47176946	      5.96968411	     49.95608006	    -11.35136368	      9.57805896	    -11.29238378	    -10.88703198	     21.22363366	     10.92531722	     14.36684845	    -28.37143489	     -6.90724400	      3.13815626
      2.32500000	     13.49293162	      6.03478172	     -2.82535819	      0.50848307	      0.95055646	      0.24376771	     10.53142094	     -8.37550421	     -2.23817351	    -58.30837563	     19.64824372	      6.15385567	     49.75853434	    -12.28149595	      9.65261468	    -10.88267655	    -10.37973117	     21.39305970	     10.81125644	     14.05372513	    -28.58424690	     -6.75982310	      2.91951997
      2.33000000	     13.53671594	      6.09952954	     -2.58215331	      0.51470789	      0.95044920	      0.24329584	     10.96263806	     -8.46915107	     -2.55014787	    -57.31037411	     19.71724169	      6.09322748	     49.57342917	    -12.98760938	      9.75049242	    -10.31067216	     -9.94971480	     21.54361338	     10.55203301	     13.60615125	    -28.69007540	     -6.66124408	      2.52495226
      2.33500000	     13.66212008	      6.05294654	     -2.44397724	      0.52105358	      0.95037000	      0.24282622	     11.19826146	     -8.41853447	     -2.69727216	    -56.07324419	     19.98995246	      6.47497707	     49.38310876	    -13.82639681	      9.77410048	     -9.86756093	     -9.43326637	     21.63207381	     10.27925225	     13.40923184	    -28.84331194	     -6.47413863	      2.34878099
      2.34000000	     13.83672775	      6.07703944	     -2.23862491	      0.52733528	      0.95026584	      0.24234338	     11.36005934	     -8.46044918	     -2.97675212	    -54.82150356	     20.28748110	      6.70378971	     48.26917966	    -14.63264725	      9.82109666	     -9.42099784	     -9.08352950	     21.81214946	     10.17028336	     12.54168576	    -29.06786961	     -6.34131647	      2.07827374
      2.34500000	     14.00714579	      5.96180531	     -2.06690130	      0.53378140	      0.95018650	      0.24212597	     11.43723714	     -8.30445411	     -3.17288608	    -53.39999492	     20.46172014	      6.77058699	     48.11773386	    -15.35640550	      9.67183498	     -9.34473666	     -8.89687190	     22.12640017	     10.45901017	     12.43015974	    -29.27120007	     -6.08956615	      1.84684280
      2.35000000	     14.17605238	      5.89033372	     -1.82632186	      0.54017951	      0.95003283	      0.24196560	     11.52033377	     -8.21036007	     -3.50385046	    -52.00524114	     20.43856423	      6.51591304	     47.94458085	    -16.07256629	      9.54942323	     -9.20224068	     -8.72645314	     22.42150756	     10.59695248	     12.26012020	    -29.48772444	     -5.87513776	      1.51012488
      2.35500000	     14.39585357	      5.80277667	     -1.61135646	      0.54651525	      0.94990971	      0.24179521	     11.49763394	     -8.08238620	     -3.79378547	    -50.49278429	     20.40870153	      6.22786927	     47.79614815	    -16.85287914	      9.42261770	     -8.90268103	     -8.55080936	     22.61151198	     10.60229617	     11.97383917	    -29.75966743	     -5.64651951	      1.25601878
